<svg width="546" height="521" viewBox="0 0 546 521" fill="none" xmlns="http://www.w3.org/2000/svg">
<path d="M198.649 438.452L160.928 497.204L137.405 482.1C133.082 479.325 129.889 476.37 127.824 473.235C125.758 470.099 124.73 466.927 124.737 463.718C124.733 460.528 125.676 457.46 127.567 454.515C129.041 452.22 130.795 450.497 132.83 449.346C134.853 448.214 137.024 447.61 139.343 447.532C141.63 447.461 143.944 447.853 146.285 448.708L146.654 448.134C144.478 446.602 142.789 444.626 141.587 442.207C140.366 439.776 139.819 437.115 139.946 434.225C140.06 431.355 141.044 428.476 142.899 425.588C144.9 422.471 147.461 420.185 150.582 418.732C153.671 417.285 157.172 416.819 161.083 417.331C164.994 417.844 169.149 419.512 173.548 422.336L198.649 438.452ZM179.707 440.632L169.581 434.131C166.119 431.908 163.171 430.947 160.737 431.248C158.29 431.567 156.354 432.836 154.93 435.055C153.886 436.68 153.357 438.366 153.343 440.113C153.329 441.859 153.822 443.553 154.821 445.194C155.801 446.822 157.285 448.275 159.274 449.552L169.688 456.238L179.707 440.632ZM164.291 464.643L155.083 458.731C153.38 457.638 151.679 456.965 149.979 456.71C148.247 456.463 146.643 456.648 145.166 457.266C143.669 457.872 142.424 458.949 141.429 460.499C140.066 462.621 139.723 464.818 140.399 467.089C141.056 469.347 142.761 471.36 145.515 473.128L154.953 479.188L164.291 464.643Z" fill="#30A9BB"/>
<path d="M137.956 392.038L147.108 404.939L76.2186 425.679L65.2117 410.165L108.229 350.137L117.382 363.038L83.5699 408.468L83.8855 408.913L137.956 392.038ZM116.145 408.723L94.5258 378.25L103.924 371.582L125.543 402.056L116.145 408.723Z" fill="#30A9BB"/>
<path d="M47.6882 290.325L50.807 304.927C48.9747 305.598 47.413 306.5 46.1217 307.636C44.8082 308.777 43.7668 310.103 42.9975 311.615C42.2282 313.127 41.7462 314.787 41.5513 316.595C41.3517 318.381 41.4607 320.252 41.8785 322.207C42.6333 325.741 44.1687 328.632 46.4847 330.88C48.7784 333.132 51.7466 334.625 55.389 335.357C59.0093 336.095 63.1864 335.958 67.9206 334.947C72.7881 333.907 76.7234 332.311 79.7265 330.159C82.7248 327.985 84.7885 325.406 85.9175 322.423C87.0466 319.439 87.2432 316.225 86.5074 312.78C86.0944 310.846 85.4566 309.112 84.5942 307.576C83.7269 306.019 82.6667 304.7 81.4134 303.619C80.1379 302.544 78.6987 301.736 77.0959 301.195C75.4883 300.632 73.7376 300.378 71.8439 300.434L68.7917 285.817C72.0063 285.526 75.2308 285.825 78.4652 286.714C81.6726 287.587 84.6915 289.045 87.522 291.09C90.3255 293.117 92.7666 295.733 94.8455 298.938C96.8973 302.125 98.3909 305.908 99.326 310.286C100.627 316.376 100.412 322.116 98.6811 327.505C96.9457 332.873 93.7632 337.503 89.1334 341.397C84.499 345.268 78.47 347.997 71.0465 349.583C63.6008 351.173 56.9674 351.125 51.1461 349.441C45.3249 347.756 40.5347 344.805 36.7755 340.588C32.9941 336.376 30.4626 331.269 29.1809 325.268C28.3359 321.312 28.1083 317.526 28.498 313.91C28.883 310.272 29.8623 306.914 31.4358 303.836C32.9871 300.762 35.1207 298.075 37.8366 295.775C40.5478 293.453 43.8316 291.637 47.6882 290.325Z" fill="#30A9BB"/>
<path d="M92.6229 268.406L23.9714 255.696L26.6588 241.181L56.9284 246.785L57.096 245.88L31.4004 215.571L34.6215 198.173L60.6436 229.341L103.329 210.582L100.114 227.946L68.4073 241.526L75.8009 250.279L95.3102 253.892L92.6229 268.406Z" fill="#30A9BB"/>
<path d="M57.2003 173.988L46.8604 167.569L77.1041 118.852L87.4441 125.272L76.1701 143.432L125.147 173.837L117.451 186.234L68.4743 155.828L57.2003 173.988Z" fill="#30A9BB"/>
<path d="M175.659 81.2371C180.078 87.4377 182.661 93.5503 183.41 99.5749C184.177 105.586 183.361 111.177 180.961 116.347C178.567 121.486 174.862 125.842 169.846 129.416C164.793 133.017 159.44 135.101 153.788 135.667C148.136 136.234 142.595 135.174 137.163 132.486C131.732 129.798 126.813 125.363 122.408 119.181C117.99 112.98 115.398 106.874 114.63 100.863C113.863 94.8515 114.677 89.2765 117.071 84.1379C119.452 78.9808 123.169 74.6021 128.222 71.0016C133.238 67.4274 138.572 65.357 144.224 64.7902C149.881 64.1917 155.426 65.2364 160.857 67.9242C166.307 70.5989 171.241 75.0366 175.659 81.2371ZM163.471 89.9218C160.609 85.9054 157.594 82.9468 154.426 81.0462C151.276 79.1324 148.111 78.2345 144.93 78.3523C141.749 78.4702 138.705 79.5644 135.799 81.6351C132.893 83.7057 130.865 86.2251 129.715 89.1934C128.565 92.1617 128.371 95.4534 129.133 99.0685C129.914 102.67 131.735 106.48 134.597 110.496C137.459 114.513 140.465 117.478 143.614 119.392C146.782 121.292 149.957 122.184 153.138 122.066C156.319 121.948 159.363 120.854 162.269 118.783C165.175 116.712 167.203 114.193 168.353 111.225C169.503 108.256 169.687 104.971 168.907 101.369C168.145 97.7541 166.333 93.9383 163.471 89.9218Z" fill="#30A9BB"/>
<path d="M192.77 49.823L190.079 37.9539L246 25.2737L248.692 37.1428L227.846 41.8696L240.594 98.0902L226.364 101.317L213.616 45.0962L192.77 49.823Z" fill="#30A9BB"/>
<path d="M326.561 30.724L341.134 33.0761L333.91 77.8377C333.098 82.8636 331.188 87.0675 328.179 90.4494C325.192 93.8349 321.386 96.2364 316.76 97.6538C312.138 99.0488 306.977 99.2863 301.278 98.3665C295.557 97.4431 290.722 95.5922 286.773 92.8139C282.828 90.0131 279.971 86.5361 278.201 82.3829C276.431 78.2296 275.952 73.64 276.763 68.6142L283.987 23.8525L298.56 26.2046L291.537 69.721C291.113 72.3461 291.308 74.7719 292.123 76.9983C292.96 79.2284 294.339 81.097 296.26 82.6041C298.181 84.1112 300.543 85.0911 303.348 85.5438C306.175 86.0001 308.726 85.8133 311.001 84.9833C313.298 84.157 315.184 82.8153 316.658 80.9583C318.154 79.1048 319.114 76.8655 319.538 74.2404L326.561 30.724Z" fill="#30A9BB"/>
<path d="M370.701 56.517L376.99 46.0972L426.082 75.7267L419.794 86.1465L401.493 75.1015L371.705 124.457L359.213 116.917L389.001 67.562L370.701 56.517Z" fill="#30A9BB"/>
<path d="M464.932 173.801C458.788 178.297 452.708 180.957 446.693 181.781C440.692 182.624 435.091 181.878 429.891 179.544C424.723 177.214 420.321 173.564 416.684 168.593C413.02 163.586 410.869 158.26 410.232 152.616C409.594 146.971 410.585 141.417 413.204 135.952C415.824 130.487 420.197 125.514 426.323 121.031C432.467 116.536 438.54 113.866 444.542 113.024C450.543 112.181 456.128 112.925 461.296 115.254C466.483 117.57 470.908 121.232 474.571 126.239C478.208 131.21 480.346 136.518 480.983 142.162C481.653 147.811 480.678 153.368 478.058 158.833C475.452 164.316 471.077 169.306 464.932 173.801ZM456.095 161.723C460.075 158.811 462.996 155.759 464.857 152.567C466.731 149.394 467.589 146.217 467.431 143.038C467.273 139.859 466.141 136.829 464.034 133.949C461.927 131.07 459.382 129.073 456.4 127.961C453.417 126.848 450.123 126.695 446.518 127.503C442.926 128.328 439.14 130.197 435.16 133.11C431.18 136.022 428.253 139.064 426.379 142.238C424.518 145.43 423.666 148.615 423.824 151.795C423.982 154.974 425.114 158.004 427.221 160.883C429.328 163.763 431.873 165.759 434.856 166.872C437.838 167.985 441.125 168.128 444.717 167.302C448.322 166.495 452.115 164.635 456.095 161.723Z" fill="#30A9BB"/>
<path d="M441.006 206.648L508.81 189.999L515.379 216.75C516.636 221.87 516.793 226.465 515.85 230.535C514.934 234.621 513.043 238.023 510.176 240.739C507.337 243.472 503.677 245.389 499.197 246.489C494.694 247.595 490.582 247.575 486.861 246.429C483.161 245.278 479.998 243.071 477.372 239.808C474.75 236.567 472.8 232.342 471.521 227.133L467.123 209.222L478.645 206.392L482.474 221.986C483.146 224.723 484.079 226.904 485.274 228.53C486.469 230.155 487.925 231.225 489.643 231.74C491.366 232.276 493.342 232.271 495.571 231.723C497.822 231.17 499.609 230.252 500.932 228.968C502.26 227.705 503.097 226.061 503.442 224.034C503.814 222.023 503.661 219.639 502.984 216.88L500.61 207.212L444.526 220.984L441.006 206.648ZM480.853 235.688L454.135 260.117L450.249 244.291L477.057 220.227L480.853 235.688Z" fill="#30A9BB"/>
<path d="M521.831 286.667L452.029 285.163L452.347 270.405L522.149 271.909L521.831 286.667Z" fill="#30A9BB"/>
<path d="M449.26 311.041L454.047 295.965L513.296 340.068L507.539 358.199L433.711 360.007L438.498 344.931L495.129 344.565L495.294 344.045L449.26 311.041ZM475.715 318.405L464.407 354.016L453.424 350.529L464.733 314.918L475.715 318.405Z" fill="#30A9BB"/>
<path d="M427.179 367.737L482.039 410.922L472.909 422.521L427.612 386.864L409.098 410.383L399.535 402.855L427.179 367.737Z" fill="#30A9BB"/>
<path d="M385.909 473.315C387.619 475.486 389.755 476.657 392.318 476.828C394.88 476.999 397.656 476.13 400.644 474.223C402.675 472.926 404.206 471.544 405.237 470.077C406.281 468.629 406.859 467.168 406.97 465.695C407.062 464.234 406.705 462.872 405.897 461.607C405.263 460.529 404.456 459.75 403.476 459.271C402.476 458.803 401.362 458.557 400.133 458.533C398.916 458.527 397.608 458.675 396.209 458.975C394.822 459.294 393.395 459.72 391.928 460.252L385.834 462.362C382.9 463.426 380.054 464.164 377.297 464.576C374.54 464.988 371.93 464.996 369.466 464.6C367.003 464.204 364.735 463.334 362.662 461.987C360.57 460.653 358.732 458.766 357.148 456.326C354.868 452.713 353.794 449.003 353.926 445.198C354.052 441.424 355.355 437.721 357.835 434.088C360.309 430.487 363.94 427.157 368.73 424.1C373.48 421.067 378.083 419.154 382.537 418.36C386.972 417.578 391.088 417.984 394.883 419.579C398.671 421.205 401.964 424.105 404.763 428.277L392.723 435.963C391.329 434.075 389.712 432.789 387.872 432.103C386.025 431.448 384.045 431.324 381.931 431.729C379.81 432.166 377.677 433.07 375.532 434.439C373.424 435.785 371.791 437.259 370.63 438.862C369.451 440.478 368.778 442.107 368.613 443.75C368.448 445.392 368.818 446.922 369.723 448.339C370.567 449.661 371.669 450.522 373.029 450.921C374.37 451.332 375.99 451.377 377.887 451.055C379.766 450.745 381.943 450.164 384.419 449.312L391.854 446.831C397.586 444.87 402.708 444.257 407.221 444.989C411.733 445.722 415.367 448.269 418.124 452.63C420.418 456.181 421.457 459.899 421.241 463.785C421.006 467.682 419.679 471.455 417.262 475.101C414.844 478.748 411.489 481.941 407.198 484.68C402.83 487.468 398.541 489.154 394.331 489.739C390.101 490.336 386.226 489.884 382.707 488.383C379.187 486.882 376.279 484.397 373.984 480.928L385.909 473.315Z" fill="#30A9BB"/>
</svg>
